<mxfile host="app.diagrams.net" agent="Mozilla/5.0 (Windows NT 10.0; Win64; x64) AppleWebKit/537.36 (KHTML, like Gecko) Chrome/133.0.0.0 Safari/537.36" version="26.0.14">
  <diagram name="PÃ¡gina-1" id="91Nppu3xEneUzSsuaj2c">
    <mxGraphModel dx="2117" dy="563" grid="1" gridSize="10" guides="1" tooltips="1" connect="1" arrows="1" fold="1" page="1" pageScale="1" pageWidth="827" pageHeight="1169" math="0" shadow="0">
      <root>
        <mxCell id="0" />
        <mxCell id="1" parent="0" />
        <mxCell id="6ocGh_l60xOqaH8BnGgY-11" value="" style="rounded=0;whiteSpace=wrap;html=1;" parent="1" vertex="1">
          <mxGeometry x="100" y="360" width="120" height="60" as="geometry" />
        </mxCell>
        <mxCell id="6ocGh_l60xOqaH8BnGgY-12" value="Clientes" style="text;html=1;align=center;verticalAlign=middle;whiteSpace=wrap;rounded=0;" parent="1" vertex="1">
          <mxGeometry x="130" y="375" width="60" height="30" as="geometry" />
        </mxCell>
        <mxCell id="6ocGh_l60xOqaH8BnGgY-13" value="" style="rounded=0;whiteSpace=wrap;html=1;" parent="1" vertex="1">
          <mxGeometry x="90" y="80" width="120" height="60" as="geometry" />
        </mxCell>
        <mxCell id="6ocGh_l60xOqaH8BnGgY-14" value="Ventas" style="text;html=1;align=center;verticalAlign=middle;whiteSpace=wrap;rounded=0;" parent="1" vertex="1">
          <mxGeometry x="120" y="95" width="60" height="30" as="geometry" />
        </mxCell>
        <mxCell id="6ocGh_l60xOqaH8BnGgY-18" value="" style="endArrow=none;html=1;rounded=0;exitX=1;exitY=0.5;exitDx=0;exitDy=0;entryX=0;entryY=0.5;entryDx=0;entryDy=0;" parent="1" source="6ocGh_l60xOqaH8BnGgY-13" target="UZfkf-di7USJlHqXqFHt-1" edge="1">
          <mxGeometry width="50" height="50" relative="1" as="geometry">
            <mxPoint x="440" y="230" as="sourcePoint" />
            <mxPoint x="400" y="110" as="targetPoint" />
            <Array as="points" />
          </mxGeometry>
        </mxCell>
        <mxCell id="6ocGh_l60xOqaH8BnGgY-21" value="&lt;u&gt;id&lt;/u&gt;" style="ellipse;whiteSpace=wrap;html=1;" parent="1" vertex="1">
          <mxGeometry x="60" width="80" height="40" as="geometry" />
        </mxCell>
        <mxCell id="6ocGh_l60xOqaH8BnGgY-26" value="fecha" style="ellipse;whiteSpace=wrap;html=1;" parent="1" vertex="1">
          <mxGeometry x="-20" y="40" width="80" height="40" as="geometry" />
        </mxCell>
        <mxCell id="6ocGh_l60xOqaH8BnGgY-27" value="total de venta" style="ellipse;whiteSpace=wrap;html=1;" parent="1" vertex="1">
          <mxGeometry x="-40" y="95" width="80" height="40" as="geometry" />
        </mxCell>
        <mxCell id="6ocGh_l60xOqaH8BnGgY-28" value="" style="endArrow=none;html=1;rounded=0;entryX=1;entryY=0.5;entryDx=0;entryDy=0;exitX=0;exitY=0;exitDx=0;exitDy=0;" parent="1" source="6ocGh_l60xOqaH8BnGgY-13" target="6ocGh_l60xOqaH8BnGgY-26" edge="1">
          <mxGeometry width="50" height="50" relative="1" as="geometry">
            <mxPoint x="60" y="220" as="sourcePoint" />
            <mxPoint x="110" y="170" as="targetPoint" />
          </mxGeometry>
        </mxCell>
        <mxCell id="6ocGh_l60xOqaH8BnGgY-29" value="" style="endArrow=none;html=1;rounded=0;entryX=0.5;entryY=1;entryDx=0;entryDy=0;exitX=0.5;exitY=0;exitDx=0;exitDy=0;" parent="1" source="6ocGh_l60xOqaH8BnGgY-13" target="6ocGh_l60xOqaH8BnGgY-21" edge="1">
          <mxGeometry width="50" height="50" relative="1" as="geometry">
            <mxPoint x="40" y="220" as="sourcePoint" />
            <mxPoint x="90" y="170" as="targetPoint" />
          </mxGeometry>
        </mxCell>
        <mxCell id="6ocGh_l60xOqaH8BnGgY-30" value="" style="endArrow=none;html=1;rounded=0;exitX=1;exitY=0.5;exitDx=0;exitDy=0;entryX=0;entryY=0.5;entryDx=0;entryDy=0;" parent="1" source="6ocGh_l60xOqaH8BnGgY-27" target="6ocGh_l60xOqaH8BnGgY-13" edge="1">
          <mxGeometry width="50" height="50" relative="1" as="geometry">
            <mxPoint x="90" y="240" as="sourcePoint" />
            <mxPoint x="140" y="190" as="targetPoint" />
          </mxGeometry>
        </mxCell>
        <mxCell id="6ocGh_l60xOqaH8BnGgY-31" value="" style="endArrow=none;html=1;rounded=0;entryX=0.548;entryY=1.009;entryDx=0;entryDy=0;entryPerimeter=0;exitX=0.5;exitY=0;exitDx=0;exitDy=0;" parent="1" source="6ocGh_l60xOqaH8BnGgY-64" target="6ocGh_l60xOqaH8BnGgY-13" edge="1">
          <mxGeometry width="50" height="50" relative="1" as="geometry">
            <mxPoint x="70" y="270" as="sourcePoint" />
            <mxPoint x="120" y="220" as="targetPoint" />
          </mxGeometry>
        </mxCell>
        <mxCell id="6ocGh_l60xOqaH8BnGgY-33" value="metodo de pago" style="ellipse;whiteSpace=wrap;html=1;" parent="1" vertex="1">
          <mxGeometry x="-30" y="150" width="80" height="40" as="geometry" />
        </mxCell>
        <mxCell id="6ocGh_l60xOqaH8BnGgY-34" value="" style="endArrow=none;html=1;rounded=0;exitX=1;exitY=0.5;exitDx=0;exitDy=0;entryX=0;entryY=1;entryDx=0;entryDy=0;" parent="1" source="6ocGh_l60xOqaH8BnGgY-33" target="6ocGh_l60xOqaH8BnGgY-13" edge="1">
          <mxGeometry width="50" height="50" relative="1" as="geometry">
            <mxPoint x="80" y="250" as="sourcePoint" />
            <mxPoint x="130" y="200" as="targetPoint" />
          </mxGeometry>
        </mxCell>
        <mxCell id="6ocGh_l60xOqaH8BnGgY-35" value="&lt;u&gt;id&lt;/u&gt;" style="ellipse;whiteSpace=wrap;html=1;" parent="1" vertex="1">
          <mxGeometry x="-20" y="370" width="80" height="40" as="geometry" />
        </mxCell>
        <mxCell id="6ocGh_l60xOqaH8BnGgY-36" value="nombre" style="ellipse;whiteSpace=wrap;html=1;" parent="1" vertex="1">
          <mxGeometry x="20" y="450" width="80" height="40" as="geometry" />
        </mxCell>
        <mxCell id="6ocGh_l60xOqaH8BnGgY-37" value="apellido" style="ellipse;whiteSpace=wrap;html=1;" parent="1" vertex="1">
          <mxGeometry x="170" y="460" width="80" height="40" as="geometry" />
        </mxCell>
        <mxCell id="6ocGh_l60xOqaH8BnGgY-47" value="n" style="text;html=1;align=center;verticalAlign=middle;whiteSpace=wrap;rounded=0;" parent="1" vertex="1">
          <mxGeometry x="190" y="80" width="60" height="30" as="geometry" />
        </mxCell>
        <mxCell id="6ocGh_l60xOqaH8BnGgY-49" value="" style="endArrow=none;html=1;rounded=0;exitX=1;exitY=0.5;exitDx=0;exitDy=0;" parent="1" source="UZfkf-di7USJlHqXqFHt-1" edge="1">
          <mxGeometry width="50" height="50" relative="1" as="geometry">
            <mxPoint x="520" y="110" as="sourcePoint" />
            <mxPoint x="700" y="110" as="targetPoint" />
          </mxGeometry>
        </mxCell>
        <mxCell id="6ocGh_l60xOqaH8BnGgY-50" value="" style="rounded=0;whiteSpace=wrap;html=1;" parent="1" vertex="1">
          <mxGeometry x="660" y="80" width="120" height="60" as="geometry" />
        </mxCell>
        <mxCell id="6ocGh_l60xOqaH8BnGgY-51" value="Productos" style="text;html=1;align=center;verticalAlign=middle;whiteSpace=wrap;rounded=0;" parent="1" vertex="1">
          <mxGeometry x="690" y="95" width="60" height="30" as="geometry" />
        </mxCell>
        <mxCell id="6ocGh_l60xOqaH8BnGgY-52" value="&lt;u&gt;id&lt;/u&gt;" style="ellipse;whiteSpace=wrap;html=1;" parent="1" vertex="1">
          <mxGeometry x="680" width="80" height="40" as="geometry" />
        </mxCell>
        <mxCell id="6ocGh_l60xOqaH8BnGgY-53" value="nombre" style="ellipse;whiteSpace=wrap;html=1;" parent="1" vertex="1">
          <mxGeometry x="760" y="20" width="80" height="40" as="geometry" />
        </mxCell>
        <mxCell id="6ocGh_l60xOqaH8BnGgY-54" value="" style="endArrow=none;html=1;rounded=0;exitX=0.5;exitY=0;exitDx=0;exitDy=0;entryX=0.5;entryY=1;entryDx=0;entryDy=0;" parent="1" source="6ocGh_l60xOqaH8BnGgY-50" target="6ocGh_l60xOqaH8BnGgY-52" edge="1">
          <mxGeometry width="50" height="50" relative="1" as="geometry">
            <mxPoint x="700" y="320" as="sourcePoint" />
            <mxPoint x="750" y="270" as="targetPoint" />
          </mxGeometry>
        </mxCell>
        <mxCell id="6ocGh_l60xOqaH8BnGgY-55" value="" style="endArrow=none;html=1;rounded=0;exitX=0.5;exitY=0;exitDx=0;exitDy=0;entryX=0.5;entryY=1;entryDx=0;entryDy=0;" parent="1" source="6ocGh_l60xOqaH8BnGgY-50" target="6ocGh_l60xOqaH8BnGgY-53" edge="1">
          <mxGeometry width="50" height="50" relative="1" as="geometry">
            <mxPoint x="900" y="220" as="sourcePoint" />
            <mxPoint x="950" y="170" as="targetPoint" />
          </mxGeometry>
        </mxCell>
        <mxCell id="6ocGh_l60xOqaH8BnGgY-57" value="m" style="text;html=1;align=center;verticalAlign=middle;whiteSpace=wrap;rounded=0;" parent="1" vertex="1">
          <mxGeometry x="600" y="80" width="60" height="30" as="geometry" />
        </mxCell>
        <mxCell id="6ocGh_l60xOqaH8BnGgY-59" value="1" style="text;html=1;align=center;verticalAlign=middle;whiteSpace=wrap;rounded=0;" parent="1" vertex="1">
          <mxGeometry x="140" y="140" width="60" height="30" as="geometry" />
        </mxCell>
        <mxCell id="6ocGh_l60xOqaH8BnGgY-60" value="n" style="text;html=1;align=center;verticalAlign=middle;whiteSpace=wrap;rounded=0;" parent="1" vertex="1">
          <mxGeometry x="150" y="330" width="60" height="30" as="geometry" />
        </mxCell>
        <mxCell id="6ocGh_l60xOqaH8BnGgY-61" value="" style="endArrow=none;html=1;rounded=0;entryX=0;entryY=1;entryDx=0;entryDy=0;exitX=0.5;exitY=0;exitDx=0;exitDy=0;" parent="1" source="6ocGh_l60xOqaH8BnGgY-36" target="6ocGh_l60xOqaH8BnGgY-11" edge="1">
          <mxGeometry width="50" height="50" relative="1" as="geometry">
            <mxPoint x="120" y="470" as="sourcePoint" />
            <mxPoint x="100" y="290" as="targetPoint" />
          </mxGeometry>
        </mxCell>
        <mxCell id="6ocGh_l60xOqaH8BnGgY-62" value="" style="endArrow=none;html=1;rounded=0;exitX=0.5;exitY=0;exitDx=0;exitDy=0;entryX=0.922;entryY=1.029;entryDx=0;entryDy=0;entryPerimeter=0;" parent="1" source="6ocGh_l60xOqaH8BnGgY-37" target="6ocGh_l60xOqaH8BnGgY-11" edge="1">
          <mxGeometry width="50" height="50" relative="1" as="geometry">
            <mxPoint x="30" y="320" as="sourcePoint" />
            <mxPoint x="80" y="270" as="targetPoint" />
          </mxGeometry>
        </mxCell>
        <mxCell id="6ocGh_l60xOqaH8BnGgY-63" value="" style="endArrow=none;html=1;rounded=0;exitX=1;exitY=0.5;exitDx=0;exitDy=0;entryX=0;entryY=0.5;entryDx=0;entryDy=0;" parent="1" source="6ocGh_l60xOqaH8BnGgY-35" target="6ocGh_l60xOqaH8BnGgY-11" edge="1">
          <mxGeometry width="50" height="50" relative="1" as="geometry">
            <mxPoint x="70" y="360" as="sourcePoint" />
            <mxPoint x="120" y="310" as="targetPoint" />
          </mxGeometry>
        </mxCell>
        <mxCell id="6ocGh_l60xOqaH8BnGgY-65" value="" style="endArrow=none;html=1;rounded=0;exitX=0.5;exitY=0;exitDx=0;exitDy=0;entryX=0.5;entryY=1;entryDx=0;entryDy=0;" parent="1" source="6ocGh_l60xOqaH8BnGgY-11" target="6ocGh_l60xOqaH8BnGgY-64" edge="1">
          <mxGeometry width="50" height="50" relative="1" as="geometry">
            <mxPoint x="160" y="360" as="sourcePoint" />
            <mxPoint x="160" y="300" as="targetPoint" />
          </mxGeometry>
        </mxCell>
        <mxCell id="6ocGh_l60xOqaH8BnGgY-64" value="puede tener" style="rhombus;whiteSpace=wrap;html=1;" parent="1" vertex="1">
          <mxGeometry x="110" y="190" width="100" height="100" as="geometry" />
        </mxCell>
        <mxCell id="6ocGh_l60xOqaH8BnGgY-67" value="" style="endArrow=none;html=1;rounded=0;exitX=1;exitY=0.5;exitDx=0;exitDy=0;entryX=0;entryY=0.5;entryDx=0;entryDy=0;" parent="1" source="6ocGh_l60xOqaH8BnGgY-11" target="6ocGh_l60xOqaH8BnGgY-72" edge="1">
          <mxGeometry width="50" height="50" relative="1" as="geometry">
            <mxPoint x="490" y="440" as="sourcePoint" />
            <mxPoint x="480" y="390" as="targetPoint" />
          </mxGeometry>
        </mxCell>
        <mxCell id="6ocGh_l60xOqaH8BnGgY-72" value="puede tener" style="rhombus;whiteSpace=wrap;html=1;" parent="1" vertex="1">
          <mxGeometry x="350" y="340" width="104" height="100" as="geometry" />
        </mxCell>
        <mxCell id="6ocGh_l60xOqaH8BnGgY-75" value="" style="endArrow=none;html=1;rounded=0;exitX=1;exitY=0.5;exitDx=0;exitDy=0;entryX=0.5;entryY=1;entryDx=0;entryDy=0;" parent="1" source="6ocGh_l60xOqaH8BnGgY-72" target="6ocGh_l60xOqaH8BnGgY-50" edge="1">
          <mxGeometry width="50" height="50" relative="1" as="geometry">
            <mxPoint x="600" y="390" as="sourcePoint" />
            <mxPoint x="460" y="220" as="targetPoint" />
            <Array as="points" />
          </mxGeometry>
        </mxCell>
        <mxCell id="6ocGh_l60xOqaH8BnGgY-77" value="n" style="text;html=1;align=center;verticalAlign=middle;whiteSpace=wrap;rounded=0;" parent="1" vertex="1">
          <mxGeometry x="210" y="360" width="60" height="30" as="geometry" />
        </mxCell>
        <mxCell id="6ocGh_l60xOqaH8BnGgY-80" value="n" style="text;html=1;align=center;verticalAlign=middle;whiteSpace=wrap;rounded=0;" parent="1" vertex="1">
          <mxGeometry x="635" y="140" width="60" height="30" as="geometry" />
        </mxCell>
        <mxCell id="UZfkf-di7USJlHqXqFHt-1" value="pueden tener" style="shape=rhombus;perimeter=rhombusPerimeter;whiteSpace=wrap;html=1;align=center;" parent="1" vertex="1">
          <mxGeometry x="330" y="65" width="180" height="90" as="geometry" />
        </mxCell>
      </root>
    </mxGraphModel>
  </diagram>
</mxfile>
